<svg width="153" height="64" viewBox="0 0 153 64" fill="none" xmlns="http://www.w3.org/2000/svg">
<g filter="url(#filter0_dd_3877_74993)">
<rect id="buttonFill" x="8" y="6" width="137" height="48" rx="12" fill="#0EA800"/>
<path id="buttonText" d="M34 36.87H39.274C41.704 36.87 43.792 35.592 43.792 33C43.792 31.326 43.18 30.318 42.118 29.778V29.76C42.802 29.364 43.414 28.518 43.414 27.258C43.36 25.224 41.884 24 39.184 24H34V36.87ZM36.574 29.112V26.07H38.842C40.084 26.07 40.894 26.448 40.894 27.492C40.894 28.59 40.228 29.112 39.004 29.112H36.574ZM36.574 34.8V31.236H38.86C40.318 31.236 41.2 31.74 41.2 33C41.2 34.386 40.246 34.8 38.932 34.8H36.574Z" fill="white"/>
<path id="buttonText" d="M48.906 37.122C50.022 37.122 51.048 36.636 51.408 35.844V36.87H53.64V27.564H51.3V32.496C51.3 33.792 50.85 34.872 49.518 34.872C48.438 34.872 47.808 34.332 47.808 32.82L47.826 27.564H45.486V33.306C45.486 35.682 46.71 37.122 48.906 37.122Z" fill="white"/>
<path id="buttonText" d="M59.5864 36.87H61.1884V34.8H60.0004C59.2264 34.8 59.0284 34.548 59.0284 33.882V29.67H61.1884V27.564H59.0284V24.936H56.6884V27.564H55.0324V29.67H56.6884V34.404C56.6884 36.528 57.9484 36.87 59.5864 36.87Z" fill="white"/>
<path id="buttonText" d="M66.6001 36.87H68.2021V34.8H67.0141C66.2401 34.8 66.0421 34.548 66.0421 33.882V29.67H68.2021V27.564H66.0421V24.936H63.7021V27.564H62.0461V29.67H63.7021V34.404C63.7021 36.528 64.9621 36.87 66.6001 36.87Z" fill="white"/>
<path id="buttonText" d="M73.7783 37.122C76.5323 37.122 78.2783 34.908 78.2783 32.208C78.2783 29.364 76.5323 27.312 73.7783 27.312C71.0243 27.312 69.2603 29.526 69.2603 32.208C69.2603 35.07 71.0063 37.122 73.7783 37.122ZM73.7783 34.962C72.4463 34.962 71.6003 33.936 71.6003 32.208C71.6003 30.516 72.4643 29.49 73.7783 29.49C75.0923 29.49 75.9383 30.516 75.9383 32.208C75.9383 33.936 75.0923 34.962 73.7783 34.962Z" fill="white"/>
<path id="buttonText" d="M79.9764 36.87H82.3164V31.884C82.3164 30.552 82.9824 29.58 84.1884 29.58C85.2684 29.58 85.9344 30.372 85.9344 31.668L85.9164 36.87H88.2564V31.11C88.2564 28.698 86.9064 27.312 84.8004 27.312C83.7924 27.312 82.6944 27.762 82.2084 28.59V27.564H79.9764V36.87Z" fill="white"/>
<path id="buttonText" d="M105.971 38L114.056 30L105.971 22L104.723 23.4459L111.347 30L104.723 36.5541L105.971 38Z" fill="#FFFFFF"/>
<rect id="buttonStroke" x="8.25" y="6.25" width="136.5" height="47.5" rx="11.75" stroke="#0EA800" stroke-width="0.5" opacity="0"/>
</g>
<defs>
<filter id="filter0_dd_3877_74993" x="0" y="0" width="153" height="64" filterUnits="userSpaceOnUse" color-interpolation-filters="sRGB">
<feFlood flood-opacity="0" result="BackgroundImageFix"/>
<feColorMatrix in="SourceAlpha" type="matrix" values="0 0 0 0 0 0 0 0 0 0 0 0 0 0 0 0 0 0 127 0" result="hardAlpha"/>
<feOffset dy="2"/>
<feGaussianBlur stdDeviation="4"/>
<feComposite in2="hardAlpha" operator="out"/>
<feColorMatrix type="matrix" values="0 0 0 0 0.176471 0 0 0 0 0.160784 0 0 0 0 0.152941 0 0 0 0.03 0"/>
<feBlend mode="normal" in2="BackgroundImageFix" result="effect1_dropShadow_3877_74993"/>
<feColorMatrix in="SourceAlpha" type="matrix" values="0 0 0 0 0 0 0 0 0 0 0 0 0 0 0 0 0 0 127 0" result="hardAlpha"/>
<feOffset dy="1"/>
<feGaussianBlur stdDeviation="2"/>
<feComposite in2="hardAlpha" operator="out"/>
<feColorMatrix type="matrix" values="0 0 0 0 0.176471 0 0 0 0 0.160784 0 0 0 0 0.152941 0 0 0 0.04 0"/>
<feBlend mode="normal" in2="effect1_dropShadow_3877_74993" result="effect2_dropShadow_3877_74993"/>
<feBlend mode="normal" in="SourceGraphic" in2="effect2_dropShadow_3877_74993" result="shape"/>
</filter>
</defs>
</svg>
